<?xml version="1.0" encoding="UTF-8" standalone="no"?>
<!-- Created with Inkscape (http://www.inkscape.org/) -->

<svg
   xmlns:dc="http://purl.org/dc/elements/1.1/"
   xmlns:cc="http://creativecommons.org/ns#"
   xmlns:rdf="http://www.w3.org/1999/02/22-rdf-syntax-ns#"
   xmlns:svg="http://www.w3.org/2000/svg"
   xmlns="http://www.w3.org/2000/svg"
   xmlns:sodipodi="http://sodipodi.sourceforge.net/DTD/sodipodi-0.dtd"
   xmlns:inkscape="http://www.inkscape.org/namespaces/inkscape"
   width="100.09967mm"
   height="60.099632mm"
   viewBox="0 0 354.68388 212.95145"
   id="svg2"
   version="1.1"
   inkscape:version="0.92.1 r15371"
   sodipodi:docname="edge_lit-toaster.svg"
   inkscape:export-filename="/home/scruss/Dropbox/elmwood/edge_lit_toaster/edge_lit-toaster.svg.png"
   inkscape:export-xdpi="192.028"
   inkscape:export-ydpi="192.028">
  <defs
     id="defs4" />
  <sodipodi:namedview
     id="base"
     pagecolor="#ffffff"
     bordercolor="#666666"
     borderopacity="1.0"
     inkscape:pageopacity="0.0"
     inkscape:pageshadow="2"
     inkscape:zoom="3.4731633"
     inkscape:cx="189.16473"
     inkscape:cy="113.57411"
     inkscape:document-units="mm"
     inkscape:current-layer="layer4"
     showgrid="false"
     inkscape:window-width="1920"
     inkscape:window-height="1011"
     inkscape:window-x="0"
     inkscape:window-y="32"
     inkscape:window-maximized="1"
     inkscape:snap-midpoints="false"
     inkscape:object-nodes="true"
     inkscape:snap-smooth-nodes="true"
     inkscape:snap-object-midpoints="true"
     inkscape:snap-center="true"
     fit-margin-top="5"
     fit-margin-left="5"
     fit-margin-right="5"
     fit-margin-bottom="5" />
  <metadata
     id="metadata7">
    <rdf:RDF>
      <cc:Work
         rdf:about="">
        <dc:format>image/svg+xml</dc:format>
        <dc:type
           rdf:resource="http://purl.org/dc/dcmitype/StillImage" />
        <dc:title />
      </cc:Work>
    </rdf:RDF>
  </metadata>
  <g
     inkscape:groupmode="layer"
     id="layer4"
     inkscape:label="etch">
    <path
       style="fill:#800000;stroke:none;stroke-width:0.2768209"
       d="m 79.901389,60.412736 c 0,0 0,2.21456 0,2.21456 0,0 -2.214568,0 -2.214568,0 0,0 0,4.429144 0,4.429144 0,0 -2.214569,0 -2.214569,0 0,0 0,2.21456 0,2.21456 0,0 -4.429132,0 -4.429132,0 0,0 0,-2.21456 0,-2.21456 0,0 -8.858269,0 -8.858269,0 0,0 0,2.21456 0,2.21456 0,0 -6.6437,0 -6.6437,0 0,0 0,2.214568 0,2.214568 0,0 -4.429137,0 -4.429137,0 0,0 0,2.214568 0,2.214568 0,0 -4.429132,0 -4.429132,0 0,0 0,2.214569 0,2.214569 0,0 -2.214569,0 -2.214569,0 0,0 0,2.21456 0,2.21456 0,0 -2.214569,0 -2.214569,0 0,0 0,2.214577 0,2.214577 0,0 -6.643698,0 -6.643698,0 0,0 0,2.21457 0,2.21457 0,0 4.429135,0 4.429135,0 0,0 0,2.21456 0,2.21456 0,0 -4.429135,0 -4.429135,0 0,0 0,2.21457 0,2.21457 0,0 6.643698,0 6.643698,0 0,0 0,2.21456 0,2.21456 0,0 -4.429129,0 -4.429129,0 0,0 0,2.214567 0,2.214567 0,0 6.643698,0 6.643698,0 0,0 0,2.21456 0,2.21456 0,0 -2.214569,0 -2.214569,0 0,0 0,2.21458 0,2.21458 0,0 13.287407,0 13.287407,0 0,0 0,2.21456 0,2.21456 0,0 -4.429137,0 -4.429137,0 0,0 0,2.214561 0,2.214561 0,0 -2.214563,0 -2.214563,0 0,0 0,-2.214561 0,-2.214561 0,0 -2.214569,0 -2.214569,0 0,0 0,4.429131 0,4.429131 0,0 2.214569,0 2.214569,0 0,0 0,4.42914 0,4.42914 0,0 2.214563,0 2.214563,0 0,0 0,2.21457 0,2.21457 0,0 2.214568,0 2.214568,0 0,0 0,2.21457 0,2.21457 0,0 4.429132,0 4.429132,0 0,0 0,2.21456 0,2.21456 0,0 4.429137,0 4.429137,0 0,0 0,2.21456 0,2.21456 0,0 13.287401,0 13.287401,0 0,0 0,-2.21456 0,-2.21456 0,0 2.214569,0 2.214569,0 0,0 0,-2.21456 0,-2.21456 0,0 2.214568,0 2.214568,0 0,0 0,-6.64371 0,-6.64371 0,0 2.214563,0 2.214563,0 0,0 0,-6.643701 0,-6.643701 0,0 2.214568,0 2.214568,0 0,0 0,31.003941 0,31.003941 0,0 -4.429131,0 -4.429131,0 0,0 0,-2.21457 0,-2.21457 0,0 -6.643706,0 -6.643706,0 0,0 0,-2.21456 0,-2.21456 0,0 -6.643701,0 -6.643701,0 0,0 0,-2.21457 0,-2.21457 0,0 -4.429131,0 -4.429131,0 0,0 0,-2.21457 0,-2.21457 0,0 -4.429138,0 -4.429138,0 0,0 0,-2.21457 0,-2.21457 0,0 -4.429131,0 -4.429131,0 0,0 0,-2.21457 0,-2.21457 0,0 -4.429131,0 -4.429131,0 0,0 0,-2.21456 0,-2.21456 0,0 -2.214569,0 -2.214569,0 0,0 0,-2.21456 0,-2.21456 0,0 -2.214569,0 -2.214569,0 0,0 0,-2.21457 0,-2.21457 0,0 -2.214569,0 -2.214569,0 0,0 0,2.21457 0,2.21457 0,0 2.214569,0 2.214569,0 0,0 0,2.21456 0,2.21456 0,0 2.214569,0 2.214569,0 0,0 0,2.21456 0,2.21456 0,0 2.214569,0 2.214569,0 0,0 0,2.21457 0,2.21457 0,0 4.429131,0 4.429131,0 0,0 0,2.21457 0,2.21457 0,0 4.429132,0 4.429132,0 0,0 0,2.21457 0,2.21457 0,0 4.429137,0 4.429137,0 0,0 0,2.21457 0,2.21457 0,0 4.429131,0 4.429131,0 0,0 0,2.21456 0,2.21456 0,0 6.643701,0 6.643701,0 0,0 0,2.21457 0,2.21457 0,0 6.643706,0 6.643706,0 0,0 0,2.21457 0,2.21457 0,0 11.072832,0 11.072832,0 0,0 0,-2.21457 0,-2.21457 0,0 4.429141,0 4.429141,0 0,0 0,-2.21457 0,-2.21457 0,0 4.429128,0 4.429128,0 0,0 0,-2.21456 0,-2.21456 0,0 2.21457,0 2.21457,0 0,0 0,-2.21457 0,-2.21457 0,0 2.21456,0 2.21456,0 0,0 0,-2.21457 0,-2.21457 0,0 2.21457,0 2.21457,0 0,0 0,-31.003938 0,-31.003938 0,0 -2.21457,0 -2.21457,0 0,0 0,-4.42913 0,-4.42913 0,0 -2.21456,0 -2.21456,0 0,0 0,-2.21456 0,-2.21456 0,0 -2.21457,0 -2.21457,0 0,0 0,-4.429147 0,-4.429147 0,0 -2.214568,0 -2.214568,0 0,0 0,-4.429128 0,-4.429128 0,0 -2.21456,0 -2.21456,0 0,0 0,-4.429136 0,-4.429136 0,0 -2.214572,0 -2.214572,0 0,0 0,-2.21456 0,-2.21456 0,0 -2.214569,0 -2.214569,0 0,0 0,-2.214576 0,-2.214576 0,0 -2.214569,0 -2.214569,0 0,0 0,-2.214568 0,-2.214568 0,0 -4.429131,0 -4.429131,0 0,0 0,-2.21456 0,-2.21456 0,0 -4.429132,0 -4.429132,-10e-7 z m 2.214563,2.21456 c 0,0 0,2.214568 0,2.214568 0,0 -2.214563,0 -2.214563,0 0,0 0,-2.214568 0,-2.214568 0,0 2.214563,0 2.214563,0 z m 2.214569,2.214568 c 0,0 0,2.214576 0,2.214576 0,0 -2.214569,0 -2.214569,0 0,0 0,-2.214576 0,-2.214576 0,0 2.214569,0 2.214569,0 z m 4.429131,2.214576 c 0,0 0,2.21456 0,2.21456 0,0 -2.214562,0 -2.214562,0 0,0 0,-2.21456 0,-2.21456 0,0 2.214562,0 2.214562,0 z m -8.858263,0 c 0,0 0,2.21456 0,2.21456 0,0 -2.214568,0 -2.214568,0 0,0 0,-2.21456 0,-2.21456 0,0 2.214568,0 2.214568,0 z m 2.214563,2.21456 c 0,0 0,2.214568 0,2.214568 0,0 -2.214563,0 -2.214563,0 0,0 0,-2.214568 0,-2.214568 0,0 2.214563,0 2.214563,0 z m 4.429138,2.214568 c 0,0 0,2.214569 0,2.214569 0,0 -2.214569,0 -2.214569,0 0,0 0,-2.214569 0,-2.214569 0,0 2.214569,0 2.214569,0 z m -11.072838,0 c 0,0 0,2.214569 0,2.214569 0,0 6.6437,0 6.6437,0 0,0 0,2.214568 0,2.214568 0,0 4.429138,0 4.429138,0 0,0 0,2.21456 0,2.21456 0,0 4.429131,0 4.429131,0 0,0 0,2.214577 0,2.214577 0,0 4.429141,0 4.429141,0 0,0 0,2.21457 0,2.21457 0,0 2.21456,0 2.21456,0 0,0 0,2.21456 0,2.21456 0,0 2.214568,0 2.214568,0 0,0 0,2.21457 0,2.21457 0,0 -4.429128,0 -4.429128,0 0,0 0,2.21456 0,2.21456 0,0 -2.214572,0 -2.214572,0 0,0 0,-2.21456 0,-2.21456 0,0 -2.214569,0 -2.214569,0 0,0 0,-2.21457 0,-2.21457 0,0 -2.214569,0 -2.214569,0 0,0 0,-2.21456 0,-2.21456 0,0 -4.429131,0 -4.429131,0 0,0 0,-2.21457 0,-2.21457 0,0 -4.429132,0 -4.429132,0 0,0 0,-2.214577 0,-2.214577 0,0 -4.429137,0 -4.429137,0 0,0 0,-2.21456 0,-2.21456 0,0 -6.643701,0 -6.643701,0 0,0 0,-2.214568 0,-2.214568 0,0 -8.858269,0 -8.858269,0 0,0 0,-2.214569 0,-2.214569 0,0 15.50197,0 15.50197,0 z m -8.85827,4.429137 c 0,0 0,2.21456 0,2.21456 0,0 6.643701,0 6.643701,0 0,0 0,2.214577 0,2.214577 0,0 4.429138,0 4.429138,0 0,0 0,2.21457 0,2.21457 0,0 4.429131,0 4.429131,0 0,0 0,2.21456 0,2.21456 0,0 4.429138,0 4.429138,0 0,0 0,2.21457 0,2.21457 0,0 2.214562,0 2.214562,0 0,0 0,2.21456 0,2.21456 0,0 2.214569,0 2.214569,0 0,0 0,2.214567 0,2.214567 0,0 -4.429131,0 -4.429131,0 0,0 0,2.21456 0,2.21456 0,0 -2.214569,0 -2.214569,0 0,0 0,-2.21456 0,-2.21456 0,0 -2.214569,0 -2.214569,0 0,0 0,-2.214567 0,-2.214567 0,0 -2.214563,0 -2.214563,0 0,0 0,-2.21456 0,-2.21456 0,0 -4.429137,0 -4.429137,0 0,0 0,-2.21457 0,-2.21457 0,0 -4.429132,0 -4.429132,0 0,0 0,-2.21456 0,-2.21456 0,0 -4.429138,0 -4.429138,0 0,0 0,-2.21457 0,-2.21457 0,0 -6.6437,0 -6.6437,0 0,0 0,-2.214577 0,-2.214577 0,0 -6.6437,0 -6.6437,0 0,0 0,2.214577 0,2.214577 0,0 -8.858269,0 -8.858269,0 0,0 0,-2.214577 0,-2.214577 0,0 6.643701,0 6.643701,0 0,0 0,-2.21456 0,-2.21456 0,0 15.501968,0 15.501968,0 z m -6.6437,4.429136 c 0,0 0,2.214571 0,2.214571 0,0 -6.6437,0 -6.6437,0 0,0 0,-2.214571 0,-2.214571 0,0 6.6437,0 6.6437,0 z m 2.214569,2.214571 c 0,0 0,2.21456 0,2.21456 0,0 -2.214569,0 -2.214569,0 0,0 0,-2.21456 0,-2.21456 0,0 2.214569,0 2.214569,0 z m -13.2874,0 c 0,0 0,2.21456 0,2.21456 0,0 -2.214569,0 -2.214569,0 0,0 0,-2.21456 0,-2.21456 0,0 2.214569,0 2.214569,0 z m -4.429138,0 c 0,0 0,2.21456 0,2.21456 0,0 -2.214569,0 -2.214569,0 0,0 0,-2.21456 0,-2.21456 0,0 2.214569,0 2.214569,0 z m 19.931107,2.21456 c 0,0 0,2.21457 0,2.21457 0,0 -2.214569,0 -2.214569,0 0,0 0,-2.21457 0,-2.21457 0,0 2.214569,0 2.214569,0 z m -8.858269,0 c 0,0 0,2.21457 0,2.21457 0,0 -2.214569,0 -2.214569,0 0,0 0,-2.21457 0,-2.21457 0,0 2.214569,0 2.214569,0 z m 11.072831,2.21457 c 0,0 0,4.429127 0,4.429127 0,0 -2.214562,0 -2.214562,0 0,0 0,-4.429127 0,-4.429127 0,0 2.214562,0 2.214562,0 z m -15.501968,0 c 0,0 0,2.21456 0,2.21456 0,0 -2.214563,0 -2.214563,0 0,0 0,-2.21456 0,-2.21456 0,0 2.214563,0 2.214563,0 z m -4.429132,0 c 0,0 0,2.21456 0,2.21456 0,0 -2.214569,0 -2.214569,0 0,0 0,-2.21456 0,-2.21456 0,0 2.214569,0 2.214569,0 z m 57.578738,2.21456 c 0,0 0,31.003938 0,31.003938 0,0 -2.21456,0 -2.21456,0 0,0 0,2.21457 0,2.21457 0,0 -2.21457,0 -2.21457,0 0,0 0,2.21457 0,2.21457 0,0 -4.429128,0 -4.429128,0 0,0 0,2.21456 0,2.21456 0,0 -4.429141,0 -4.429141,0 0,0 0,2.21457 0,2.21457 0,0 -4.429131,0 -4.429131,0 0,0 0,-33.218501 0,-33.218501 0,0 4.429131,0 4.429131,0 0,0 0,-2.21458 0,-2.21458 0,0 4.429141,0 4.429141,0 0,0 0,-2.21456 0,-2.21456 0,0 4.429128,0 4.429128,0 0,0 0,-2.214567 0,-2.214567 0,0 4.42913,0 4.42913,0 z m -26.574799,0 c 0,0 0,2.214567 0,2.214567 0,0 -2.214569,0 -2.214569,0 0,0 0,-2.214567 0,-2.214567 0,0 2.214569,0 2.214569,0 z m -19.931107,0 c 0,0 0,2.214567 0,2.214567 0,0 -2.214563,0 -2.214563,0 0,0 0,-2.214567 0,-2.214567 0,0 2.214563,0 2.214563,0 z m 22.145675,2.214567 c 0,0 0,2.21456 0,2.21456 0,0 -2.214568,0 -2.214568,0 0,0 0,-2.21456 0,-2.21456 0,0 2.214568,0 2.214568,0 z m -11.072838,0 c 0,0 0,4.42914 0,4.42914 0,0 -2.214569,0 -2.214569,0 0,0 0,-4.42914 0,-4.42914 0,0 2.214569,0 2.214569,0 z m -15.501969,0 c 0,0 0,2.21456 0,2.21456 0,0 -2.214568,0 -2.214568,0 0,0 0,-2.21456 0,-2.21456 0,0 2.214568,0 2.214568,0 z m -4.429131,0 c 0,0 0,2.21456 0,2.21456 0,0 -2.214569,0 -2.214569,0 0,0 0,-2.21456 0,-2.21456 0,0 2.214569,0 2.214569,0 z m 33.218501,2.21456 c 0,0 0,4.42914 0,4.42914 0,0 -2.214563,0 -2.214563,0 0,0 0,-4.42914 0,-4.42914 0,0 2.214563,0 2.214563,0 z m -22.14567,0 c 0,0 0,2.21458 0,2.21458 0,0 -2.214568,0 -2.214568,0 0,0 0,-2.21458 0,-2.21458 0,0 2.214568,0 2.214568,0 z m 37.64764,0 c 0,0 0,2.21458 0,2.21458 0,0 -4.429132,0 -4.429132,0 0,0 0,2.21456 0,2.21456 0,0 -4.429138,0 -4.429138,0 0,0 0,6.643701 0,6.643701 0,0 4.429138,0 4.429138,0 0,0 0,-6.643701 0,-6.643701 0,0 4.429132,0 4.429132,0 0,0 0,-2.21456 0,-2.21456 0,0 2.214568,0 2.214568,0 0,0 0,4.429121 0,4.429121 0,0 2.21457,0 2.21457,0 0,0 0,-6.643701 0,-6.643701 0,0 -4.429138,0 -4.429138,0 z m -26.574802,2.21458 c 0,0 0,4.429121 0,4.429121 0,0 -2.214569,0 -2.214569,0 0,0 0,-4.429121 0,-4.429121 0,0 2.214569,0 2.214569,0 z m -6.6437,2.21456 c 0,0 0,2.214561 0,2.214561 0,0 -2.214569,0 -2.214569,0 0,0 0,-2.214561 0,-2.214561 0,0 2.214569,0 2.214569,0 z m 8.858263,2.214561 c 0,0 0,6.64371 0,6.64371 0,0 -2.214563,0 -2.214563,0 0,0 0,-6.64371 0,-6.64371 0,0 2.214563,0 2.214563,0 z m -13.287401,0 c 0,0 0,2.21457 0,2.21457 0,0 -4.429131,0 -4.429131,0 0,0 0,2.21457 0,2.21457 0,0 -2.214569,0 -2.214569,0 0,0 0,-2.21457 0,-2.21457 0,0 -2.214568,0 -2.214568,0 0,0 0,-2.21457 0,-2.21457 0,0 8.858268,0 8.858268,0 z m -17.716538,0 c 0,0 0,2.21457 0,2.21457 0,0 2.214569,0 2.214569,0 0,0 0,-2.21457 0,-2.21457 0,0 -2.214569,0 -2.214569,0 z m 24.360238,2.21457 c 0,0 0,2.21457 0,2.21457 0,0 -2.214562,0 -2.214562,0 0,0 0,-2.21457 0,-2.21457 0,0 2.214562,0 2.214562,0 z m 28.78938,0 c 0,0 0,2.21457 0,2.21457 0,0 2.21456,0 2.21456,0 0,0 0,-2.21457 0,-2.21457 0,0 -2.21456,0 -2.21456,0 z m -17.716541,2.21457 c 0,0 0,2.21457 0,2.21457 0,0 -2.214569,0 -2.214569,0 0,0 0,-2.21457 0,-2.21457 0,0 2.214569,0 2.214569,0 z m -15.50197,0 c 0,0 0,2.21457 0,2.21457 0,0 -6.6437,0 -6.6437,0 0,0 0,-2.21457 0,-2.21457 0,0 6.6437,0 6.6437,0 z m -19.931107,0 c 0,0 0,2.21457 0,2.21457 0,0 2.214569,0 2.214569,0 0,0 0,-2.21457 0,-2.21457 0,0 -2.214569,0 -2.214569,0 z m 28.789376,2.21457 c 0,0 0,2.21457 0,2.21457 0,0 -2.214569,0 -2.214569,0 0,0 0,-2.21457 0,-2.21457 0,0 2.214569,0 2.214569,0 z m -6.6437,0 c 0,0 0,2.21457 0,2.21457 0,0 -2.214569,0 -2.214569,0 0,0 0,-2.21457 0,-2.21457 0,0 2.214569,0 2.214569,0 z m 31.003942,0 c 0,0 0,2.21457 0,2.21457 0,0 2.21456,0 2.21456,0 0,0 0,-2.21457 0,-2.21457 0,0 -2.21456,0 -2.21456,0 z m -17.716541,2.21457 c 0,0 0,2.21457 0,2.21457 0,0 -2.214569,0 -2.214569,0 0,0 0,-2.21457 0,-2.21457 0,0 2.214569,0 2.214569,0 z m -8.85827,0 c 0,0 0,2.21457 0,2.21457 0,0 -4.429131,0 -4.429131,0 0,0 0,-2.21457 0,-2.21457 0,0 4.429131,0 4.429131,0 z m 6.643701,2.21457 c 0,0 0,2.21456 0,2.21456 0,0 -4.429132,0 -4.429132,0 0,0 0,-2.21456 0,-2.21456 0,0 4.429132,0 4.429132,0 z m 19.93111,0 c 0,0 0,2.21456 0,2.21456 0,0 2.21456,0 2.21456,0 0,0 0,-2.21456 0,-2.21456 0,0 -2.21456,0 -2.21456,0 z m 0,4.42912 c 0,0 0,2.21457 0,2.21457 0,0 2.21456,0 2.21456,0 0,0 0,-2.21457 0,-2.21457 0,0 -2.21456,0 -2.21456,0 z"
       id="Selection"
       inkscape:connector-curvature="0" />
    <path
       style="fill:#800000;stroke:none;stroke-width:0.27682084"
       d="m 186.20022,67.056441 c 0,0 0,4.42913 0,4.42913 0,0 -2.21457,0 -2.21457,0 0,0 0,-2.21457 0,-2.21457 0,0 -6.6437,0 -6.6437,0 0,0 0,-2.21456 0,-2.21456 0,0 -8.85826,0 -8.85826,0 0,0 0,2.21456 0,2.21456 0,0 -6.64371,0 -6.64371,0 0,0 0,2.21457 0,2.21457 0,0 -4.42913,0 -4.42913,0 0,0 0,2.21457 0,2.21457 0,0 -4.42913,0 -4.42913,0 0,0 0,2.21457 0,2.21457 0,0 -2.21457,0 -2.21457,0 0,0 0,2.21456 0,2.21456 0,0 -2.21457,0 -2.21457,0 0,0 0,11.07284 0,11.07284 0,0 2.21457,0 2.21457,0 0,0 0,2.214558 0,2.214558 0,0 -8.85827,0 -8.85827,0 0,0 0,2.21457 0,2.21457 0,0 4.42914,0 4.42914,0 0,0 0,2.21457 0,2.21457 0,0 -4.42914,0 -4.42914,0 0,0 0,2.21457 0,2.21457 0,0 2.21457,0 2.21457,0 0,0 0,2.214561 0,2.214561 0,0 4.42913,0 4.42913,0 0,0 0,2.21456 0,2.21456 0,0 6.64371,0 6.64371,0 0,0 0,2.21457 0,2.21457 0,0 2.21456,0 2.21456,0 0,0 0,-2.21457 0,-2.21457 0,0 2.21457,0 2.21457,0 0,0 0,2.21457 0,2.21457 0,0 6.6437,0 6.6437,0 0,0 0,-2.21457 0,-2.21457 0,0 2.21457,0 2.21457,0 0,0 0,4.42914 0,4.42914 0,0 -11.07284,0 -11.07284,0 0,0 0,2.21457 0,2.21457 0,0 2.21457,0 2.21457,0 0,0 0,2.21457 0,2.21457 0,0 4.42913,0 4.42913,0 0,0 0,2.21456 0,2.21456 0,0 4.42914,0 4.42914,0 0,0 0,2.21456 0,2.21456 0,0 13.2874,0 13.2874,0 0,0 0,-2.21456 0,-2.21456 0,0 2.21456,0 2.21456,0 0,0 0,-2.21456 0,-2.21456 0,0 2.21457,0 2.21457,0 0,0 0,-6.64371 0,-6.64371 0,0 2.21456,0 2.21456,0 0,0 0,-6.643691 0,-6.643691 0,0 2.21457,0 2.21457,0 0,0 0,31.003931 0,31.003931 0,0 -4.42913,0 -4.42913,0 0,0 0,-2.21457 0,-2.21457 0,0 -6.6437,0 -6.6437,0 0,0 0,-2.21456 0,-2.21456 0,0 -6.64371,0 -6.64371,0 0,0 0,-2.21457 0,-2.21457 0,0 -4.42912,0 -4.42912,0 0,0 0,-2.21457 0,-2.21457 0,0 -4.42914,0 -4.42914,0 0,0 0,-2.21457 0,-2.21457 0,0 -4.42913,0 -4.42913,0 0,0 0,-2.21457 0,-2.21457 0,0 -4.42913,0 -4.42913,0 0,0 0,-2.21456 0,-2.21456 0,0 -2.21457,0 -2.21457,0 0,0 0,-2.21456 0,-2.21456 0,0 -2.21457,0 -2.21457,0 0,0 0,-2.21457 0,-2.21457 0,0 -2.21457,0 -2.21457,0 0,0 0,2.21457 0,2.21457 0,0 2.21457,0 2.21457,0 0,0 0,2.21456 0,2.21456 0,0 2.21457,0 2.21457,0 0,0 0,2.21456 0,2.21456 0,0 2.21457,0 2.21457,0 0,0 0,2.21457 0,2.21457 0,0 4.42913,0 4.42913,0 0,0 0,2.21457 0,2.21457 0,0 4.42913,0 4.42913,0 0,0 0,2.21457 0,2.21457 0,0 4.42914,0 4.42914,0 0,0 0,2.21457 0,2.21457 0,0 4.42912,0 4.42912,0 0,0 0,2.21456 0,2.21456 0,0 6.64371,0 6.64371,0 0,0 0,2.21457 0,2.21457 0,0 6.6437,0 6.6437,0 0,0 0,2.21457 0,2.21457 0,0 11.07283,0 11.07283,0 0,0 0,-2.21457 0,-2.21457 0,0 4.42914,0 4.42914,0 0,0 0,-2.21457 0,-2.21457 0,0 4.42913,0 4.42913,0 0,0 0,-2.21456 0,-2.21456 0,0 2.21456,0 2.21456,0 0,0 0,-2.21457 0,-2.21457 0,0 2.21457,0 2.21457,0 0,0 0,-2.21457 0,-2.21457 0,0 2.21457,0 2.21457,0 0,0 0,-31.003928 0,-31.003928 0,0 -2.21457,0 -2.21457,0 0,0 0,-4.42914 0,-4.42914 0,0 -2.21457,0 -2.21457,0 0,0 0,-2.21456 0,-2.21456 0,0 -2.21456,0 -2.21456,0 0,0 0,-2.21457 0,-2.21457 0,0 -2.21457,0 -2.21457,0 0,0 0,-2.214571 0,-2.214571 0,0 -2.21456,0 -2.21456,0 0,0 0,-2.21456 0,-2.21456 0,0 -2.21457,0 -2.21457,0 0,0 0,-2.21457 0,-2.21457 0,0 -2.21457,0 -2.21457,0 0,0 0,-2.21457 0,-2.21457 0,0 -2.21456,0 -2.21456,0 0,0 0,-2.21457 0,-2.21457 0,0 -4.42914,0 -4.42914,0 0,0 0,-2.21456 0,-2.21456 0,0 -4.42913,0 -4.42913,0 z m 6.6437,4.42913 c 0,0 0,2.21457 0,2.21457 0,0 -2.21457,0 -2.21457,0 0,0 0,-2.21457 0,-2.21457 0,0 2.21457,0 2.21457,0 z m -11.07283,0 c 0,0 0,2.21457 0,2.21457 0,0 6.64369,0 6.64369,0 0,0 0,2.21457 0,2.21457 0,0 4.42914,0 4.42914,0 0,0 0,2.21456 0,2.21456 0,0 4.42913,0 4.42913,0 0,0 0,2.214571 0,2.214571 0,0 4.42914,0 4.42914,0 0,0 0,2.21457 0,2.21457 0,0 2.21456,0 2.21456,0 0,0 0,2.21456 0,2.21456 0,0 2.21457,0 2.21457,0 0,0 0,2.21457 0,2.21457 0,0 -4.42913,0 -4.42913,0 0,0 0,2.21457 0,2.21457 0,0 -2.21457,0 -2.21457,0 0,0 0,-2.21457 0,-2.21457 0,0 -2.21457,0 -2.21457,0 0,0 0,-2.21457 0,-2.21457 0,0 -2.21456,0 -2.21456,0 0,0 0,-2.21456 0,-2.21456 0,0 -4.42914,0 -4.42914,0 0,0 0,-2.21457 0,-2.21457 0,0 -4.42913,0 -4.42913,0 0,0 0,-2.214571 0,-2.214571 0,0 -4.42913,0 -4.42913,0 0,0 0,-2.21456 0,-2.21456 0,0 -6.64371,0 -6.64371,0 0,0 0,-2.21457 0,-2.21457 0,0 -8.85826,0 -8.85826,0 0,0 0,-2.21457 0,-2.21457 0,0 15.50197,0 15.50197,0 z m -8.85828,4.42914 c 0,0 0,2.21456 0,2.21456 0,0 6.64371,0 6.64371,0 0,0 0,2.21457 0,2.21457 0,0 4.42913,0 4.42913,0 0,0 0,2.21457 0,2.21457 0,0 4.42913,0 4.42913,0 0,0 0,2.21456 0,2.21456 0,0 4.42914,0 4.42914,0 0,0 0,2.214571 0,2.214571 0,0 2.21457,0 2.21457,0 0,0 0,2.21457 0,2.21457 0,0 2.21456,0 2.21456,0 0,0 0,2.214557 0,2.214557 0,0 -4.42913,0 -4.42913,0 0,0 0,2.21457 0,2.21457 0,0 -2.21457,0 -2.21457,0 0,0 0,-2.21457 0,-2.21457 0,0 -2.21457,0 -2.21457,0 0,0 0,-2.214557 0,-2.214557 0,0 -2.21456,0 -2.21456,0 0,0 0,-2.21457 0,-2.21457 0,0 -4.42913,0 -4.42913,0 0,0 0,-2.214571 0,-2.214571 0,0 -4.42914,0 -4.42914,0 0,0 0,-2.21456 0,-2.21456 0,0 -4.42914,0 -4.42914,0 0,0 0,-2.21457 0,-2.21457 0,0 -6.64369,0 -6.64369,0 0,0 0,-2.21457 0,-2.21457 0,0 -8.85827,0 -8.85827,0 0,0 0,-2.21456 0,-2.21456 0,0 15.50196,0 15.50196,0 z m -11.07283,4.42913 c 0,0 0,2.21457 0,2.21457 0,0 -8.85826,0 -8.85826,0 0,0 0,-2.21457 0,-2.21457 0,0 8.85826,0 8.85826,0 z m 4.42914,2.21457 c 0,0 0,2.21456 0,2.21456 0,0 -4.42914,0 -4.42914,0 0,0 0,-2.21456 0,-2.21456 0,0 4.42914,0 4.42914,0 z m -13.2874,0 c 0,0 0,2.21456 0,2.21456 0,0 -2.21457,0 -2.21457,0 0,0 0,-2.21456 0,-2.21456 0,0 2.21457,0 2.21457,0 z m 13.2874,4.42913 c 0,0 0,2.21457 0,2.21457 0,0 -15.50197,0 -15.50197,0 0,0 0,-2.21457 0,-2.21457 0,0 15.50197,0 15.50197,0 z m 44.29133,2.21457 c 0,0 0,31.003929 0,31.003929 0,0 -2.21457,0 -2.21457,0 0,0 0,2.21457 0,2.21457 0,0 -2.21456,0 -2.21456,0 0,0 0,2.21457 0,2.21457 0,0 -4.42913,0 -4.42913,0 0,0 0,2.21456 0,2.21456 0,0 -4.42914,0 -4.42914,0 0,0 0,2.21457 0,2.21457 0,0 -4.42913,0 -4.42913,0 0,0 0,-33.218501 0,-33.218501 0,0 4.42913,0 4.42913,0 0,0 0,-2.21457 0,-2.21457 0,0 4.42914,0 4.42914,0 0,0 0,-2.21457 0,-2.21457 0,0 4.42913,0 4.42913,0 0,0 0,-2.214558 0,-2.214558 0,0 4.42913,0 4.42913,0 z m -26.5748,0 c 0,0 0,2.214558 0,2.214558 0,0 -2.21456,0 -2.21456,0 0,0 0,-2.214558 0,-2.214558 0,0 2.21456,0 2.21456,0 z m -13.2874,0 c 0,0 0,2.214558 0,2.214558 0,0 -4.42913,0 -4.42913,0 0,0 0,-2.214558 0,-2.214558 0,0 4.42913,0 4.42913,0 z m 15.50197,2.214558 c 0,0 0,2.21457 0,2.21457 0,0 -2.21457,0 -2.21457,0 0,0 0,-2.21457 0,-2.21457 0,0 2.21457,0 2.21457,0 z m -13.28741,0 c 0,0 0,2.21457 0,2.21457 0,0 -2.21456,0 -2.21456,0 0,0 0,-2.21457 0,-2.21457 0,0 2.21456,0 2.21456,0 z m -13.28739,0 c 0,0 0,2.21457 0,2.21457 0,0 -2.21457,0 -2.21457,0 0,0 0,-2.21457 0,-2.21457 0,0 2.21457,0 2.21457,0 z m 28.78936,2.21457 c 0,0 0,4.42914 0,4.42914 0,0 -2.21456,0 -2.21456,0 0,0 0,-4.42914 0,-4.42914 0,0 2.21456,0 2.21456,0 z m -13.2874,0 c 0,0 0,2.21457 0,2.21457 0,0 -2.21457,0 -2.21457,0 0,0 0,-2.21457 0,-2.21457 0,0 2.21457,0 2.21457,0 z m -19.93109,0 c 0,0 0,2.21457 0,2.21457 0,0 -2.21457,0 -2.21457,0 0,0 0,-2.21457 0,-2.21457 0,0 2.21457,0 2.21457,0 z m -4.42914,0 c 0,0 0,2.21457 0,2.21457 0,0 -2.21457,0 -2.21457,0 0,0 0,-2.21457 0,-2.21457 0,0 2.21457,0 2.21457,0 z m 53.1496,0 c 0,0 0,2.21457 0,2.21457 0,0 -4.42913,0 -4.42913,0 0,0 0,2.21457 0,2.21457 0,0 -4.42913,0 -4.42913,0 0,0 0,6.643691 0,6.643691 0,0 4.42913,0 4.42913,0 0,0 0,-6.643691 0,-6.643691 0,0 4.42913,0 4.42913,0 0,0 0,-2.21457 0,-2.21457 0,0 2.21457,0 2.21457,0 0,0 0,4.429131 0,4.429131 0,0 2.21456,0 2.21456,0 0,0 0,-6.643701 0,-6.643701 0,0 -4.42913,0 -4.42913,0 z m -26.5748,2.21457 c 0,0 0,4.429131 0,4.429131 0,0 -2.21457,0 -2.21457,0 0,0 0,-4.429131 0,-4.429131 0,0 2.21457,0 2.21457,0 z m -15.50197,0 c 0,0 0,2.21457 0,2.21457 0,0 -2.21456,0 -2.21456,0 0,0 0,-2.21457 0,-2.21457 0,0 2.21456,0 2.21456,0 z m -4.42913,2.21457 c 0,0 0,2.214561 0,2.214561 0,0 -2.21456,0 -2.21456,0 0,0 0,-2.214561 0,-2.214561 0,0 2.21456,0 2.21456,0 z m -4.42913,0 c 0,0 0,2.214561 0,2.214561 0,0 -4.42914,0 -4.42914,0 0,0 0,-2.214561 0,-2.214561 0,0 4.42914,0 4.42914,0 z m 26.5748,2.214561 c 0,0 0,6.6437 0,6.6437 0,0 -2.21457,0 -2.21457,0 0,0 0,-6.6437 0,-6.6437 0,0 2.21457,0 2.21457,0 z m -15.50197,0 c 0,0 0,2.21456 0,2.21456 0,0 -2.21457,0 -2.21457,0 0,0 0,-2.21456 0,-2.21456 0,0 2.21457,0 2.21457,0 z m 8.85826,2.21456 c 0,0 0,2.21457 0,2.21457 0,0 -2.21456,0 -2.21456,0 0,0 0,-2.21457 0,-2.21457 0,0 2.21456,0 2.21456,0 z m 28.78938,0 c 0,0 0,2.21457 0,2.21457 0,0 2.21456,0 2.21456,0 0,0 0,-2.21457 0,-2.21457 0,0 -2.21456,0 -2.21456,0 z m -17.71654,2.21457 c 0,0 0,2.21457 0,2.21457 0,0 -2.21456,0 -2.21456,0 0,0 0,-2.21457 0,-2.21457 0,0 2.21456,0 2.21456,0 z m -35.43307,0 c 0,0 0,2.21457 0,2.21457 0,0 2.21457,0 2.21457,0 0,0 0,-2.21457 0,-2.21457 0,0 -2.21457,0 -2.21457,0 z m 28.78937,2.21457 c 0,0 0,2.21457 0,2.21457 0,0 -2.21457,0 -2.21457,0 0,0 0,-2.21457 0,-2.21457 0,0 2.21457,0 2.21457,0 z m -6.6437,0 c 0,0 0,2.21457 0,2.21457 0,0 -2.21456,0 -2.21456,0 0,0 0,-2.21457 0,-2.21457 0,0 2.21456,0 2.21456,0 z m 31.00394,0 c 0,0 0,2.21457 0,2.21457 0,0 2.21456,0 2.21456,0 0,0 0,-2.21457 0,-2.21457 0,0 -2.21456,0 -2.21456,0 z m -17.71654,2.21457 c 0,0 0,2.21457 0,2.21457 0,0 -2.21456,0 -2.21456,0 0,0 0,-2.21457 0,-2.21457 0,0 2.21456,0 2.21456,0 z m -8.85827,0 c 0,0 0,2.21457 0,2.21457 0,0 -4.42913,0 -4.42913,0 0,0 0,-2.21457 0,-2.21457 0,0 4.42913,0 4.42913,0 z m 6.64371,2.21457 c 0,0 0,2.21456 0,2.21456 0,0 -4.42914,0 -4.42914,0 0,0 0,-2.21456 0,-2.21456 0,0 4.42914,0 4.42914,0 z m 19.9311,0 c 0,0 0,2.21456 0,2.21456 0,0 2.21456,0 2.21456,0 0,0 0,-2.21456 0,-2.21456 0,0 -2.21456,0 -2.21456,0 z m 0,4.42912 c 0,0 0,2.21457 0,2.21457 0,0 2.21456,0 2.21456,0 0,0 0,-2.21457 0,-2.21457 0,0 -2.21456,0 -2.21456,0 z"
       id="Selection-3"
       inkscape:connector-curvature="0" />
    <path
       style="fill:#800000;stroke:none;stroke-width:0.27682084"
       d="m 274.78253,67.056439 c 0,0 0,2.21457 0,2.21457 0,0 -6.64371,0 -6.64371,0 0,0 0,2.21456 0,2.21456 0,0 -4.42913,0 -4.42913,0 0,0 0,2.21457 0,2.21457 0,0 -4.42913,0 -4.42913,0 0,0 0,2.21457 0,2.21457 0,0 -2.21457,0 -2.21457,0 0,0 0,2.21457 0,2.21457 0,0 -2.21457,0 -2.21457,0 0,0 0,11.07283 0,11.07283 0,0 2.21457,0 2.21457,0 0,0 0,2.21456 0,2.21456 0,0 -2.21457,0 -2.21457,0 0,0 0,2.21458 0,2.21458 0,0 2.21457,0 2.21457,0 0,0 0,-2.21458 0,-2.21458 0,0 2.21457,0 2.21457,0 0,0 0,4.42914 0,4.42914 0,0 4.42913,0 4.42913,0 0,0 0,2.21457 0,2.21457 0,0 13.2874,0 13.2874,0 0,0 0,2.214571 0,2.214571 0,0 -4.42913,0 -4.42913,0 0,0 0,2.21456 0,2.21456 0,0 -2.21458,0 -2.21458,0 0,0 0,-2.21456 0,-2.21456 0,0 -4.42912,0 -4.42912,0 0,0 0,2.21456 0,2.21456 0,0 -2.21457,0 -2.21457,0 0,0 0,-2.21456 0,-2.21456 0,0 -2.21457,0 -2.21457,0 0,0 0,-2.214571 0,-2.214571 0,0 -4.42913,0 -4.42913,0 0,0 0,-2.21457 0,-2.21457 0,0 -2.21457,0 -2.21457,0 0,0 0,2.21457 0,2.21457 0,0 -4.42913,0 -4.42913,0 0,0 0,2.214571 0,2.214571 0,0 -2.21457,0 -2.21457,0 0,0 0,4.42912 0,4.42912 0,0 2.21457,0 2.21457,0 0,0 0,4.42915 0,4.42915 0,0 2.21457,0 2.21457,0 0,0 0,4.42912 0,4.42912 0,0 2.21456,0 2.21456,0 0,0 0,2.21457 0,2.21457 0,0 2.21457,0 2.21457,0 0,0 0,2.21456 0,2.21456 0,0 2.21457,0 2.21457,0 0,0 0,2.21457 0,2.21457 0,0 2.21456,0 2.21456,0 0,0 0,2.21457 0,2.21457 0,0 4.42914,0 4.42914,0 0,0 0,-2.21457 0,-2.21457 0,0 4.42912,0 4.42912,0 0,0 0,2.21457 0,2.21457 0,0 4.42915,0 4.42915,0 0,0 0,2.21457 0,2.21457 0,0 4.42912,0 4.42912,0 0,0 0,2.21456 0,2.21456 0,0 6.6437,0 6.6437,0 0,0 0,2.21457 0,2.21457 0,0 6.6437,0 6.6437,0 0,0 0,2.21457 0,2.21457 0,0 11.07284,0 11.07284,0 0,0 0,-2.21457 0,-2.21457 0,0 4.42913,0 4.42913,0 0,0 0,-2.21457 0,-2.21457 0,0 4.42914,0 4.42914,0 0,0 0,-2.21456 0,-2.21456 0,0 2.21456,0 2.21456,0 0,0 0,-2.21457 0,-2.21457 0,0 2.21456,0 2.21456,0 0,0 0,-2.21457 0,-2.21457 0,0 2.21458,0 2.21458,0 0,0 0,-31.003931 0,-31.003931 0,0 -2.21458,0 -2.21458,0 0,0 0,-4.42913 0,-4.42913 0,0 -2.21456,0 -2.21456,0 0,0 0,-2.21457 0,-2.21457 0,0 -2.21456,0 -2.21456,0 0,0 0,-2.21457 0,-2.21457 0,0 -2.21457,0 -2.21457,0 0,0 0,-2.21456 0,-2.21456 0,0 -4.42914,0 -4.42914,0 0,0 0,-2.21457 0,-2.21457 0,0 -4.42913,0 -4.42913,0 0,0 0,-2.21457 0,-2.21457 0,0 -4.42913,0 -4.42913,0 0,0 0,-2.21457 0,-2.21457 0,0 -6.6437,0 -6.6437,0 0,0 0,-2.21456 0,-2.21456 0,0 -6.64371,0 -6.64371,0 0,0 0,-2.21457 0,-2.21457 0,0 -8.85825,0 -8.85825,0 z m 13.2874,4.42913 c 0,0 0,2.21457 0,2.21457 0,0 6.64369,0 6.64369,0 0,0 0,2.21457 0,2.21457 0,0 4.42913,0 4.42913,0 0,0 0,2.21457 0,2.21457 0,0 4.42914,0 4.42914,0 0,0 0,2.21456 0,2.21456 0,0 4.42913,0 4.42913,0 0,0 0,2.21457 0,2.21457 0,0 2.21457,0 2.21457,0 0,0 0,2.21457 0,2.21457 0,0 2.21457,0 2.21457,0 0,0 0,2.21456 0,2.21456 0,0 -4.42914,0 -4.42914,0 0,0 0,2.21457 0,2.21457 0,0 -2.21457,0 -2.21457,0 0,0 0,-2.21457 0,-2.21457 0,0 -2.21456,0 -2.21456,0 0,0 0,-2.21456 0,-2.21456 0,0 -2.21457,0 -2.21457,0 0,0 0,-2.21457 0,-2.21457 0,0 -4.42913,0 -4.42913,0 0,0 0,-2.21457 0,-2.21457 0,0 -4.42914,0 -4.42914,0 0,0 0,-2.21456 0,-2.21456 0,0 -4.42912,0 -4.42912,0 0,0 0,-2.21457 0,-2.21457 0,0 -6.64371,0 -6.64371,0 0,0 0,-2.21457 0,-2.21457 0,0 -8.85826,0 -8.85826,0 0,0 0,-2.21457 0,-2.21457 0,0 15.50197,0 15.50197,0 z m -8.85828,4.42914 c 0,0 0,2.21457 0,2.21457 0,0 6.6437,0 6.6437,0 0,0 0,2.21456 0,2.21456 0,0 4.42914,0 4.42914,0 0,0 0,2.21457 0,2.21457 0,0 4.42913,0 4.42913,0 0,0 0,2.21457 0,2.21457 0,0 4.42913,0 4.42913,0 0,0 0,2.21456 0,2.21456 0,0 2.21457,0 2.21457,0 0,0 0,2.21457 0,2.21457 0,0 2.21457,0 2.21457,0 0,0 0,2.21456 0,2.21456 0,0 -4.42914,0 -4.42914,0 0,0 0,2.21458 0,2.21458 0,0 -2.21456,0 -2.21456,0 0,0 0,-2.21458 0,-2.21458 0,0 -2.21457,0 -2.21457,0 0,0 0,-2.21456 0,-2.21456 0,0 -2.21457,0 -2.21457,0 0,0 0,-2.21457 0,-2.21457 0,0 -4.42912,0 -4.42912,0 0,0 0,-2.21456 0,-2.21456 0,0 -4.42915,0 -4.42915,0 0,0 0,-2.21457 0,-2.21457 0,0 -4.42913,0 -4.42913,0 0,0 0,-2.21457 0,-2.21457 0,0 -6.64369,0 -6.64369,0 0,0 0,-2.21456 0,-2.21456 0,0 -8.85827,0 -8.85827,0 0,0 0,-2.21457 0,-2.21457 0,0 15.50196,0 15.50196,0 z m -11.07283,4.42913 c 0,0 0,2.21457 0,2.21457 0,0 -8.85826,0 -8.85826,0 0,0 0,-2.21457 0,-2.21457 0,0 8.85826,0 8.85826,0 z m 4.42914,2.21457 c 0,0 0,2.21457 0,2.21457 0,0 -4.42914,0 -4.42914,0 0,0 0,-2.21457 0,-2.21457 0,0 4.42914,0 4.42914,0 z m -13.2874,0 c 0,0 0,2.21457 0,2.21457 0,0 -2.21457,0 -2.21457,0 0,0 0,-2.21457 0,-2.21457 0,0 2.21457,0 2.21457,0 z m 57.57872,6.6437 c 0,0 0,31.003931 0,31.003931 0,0 -2.21456,0 -2.21456,0 0,0 0,2.21457 0,2.21457 0,0 -2.21456,0 -2.21456,0 0,0 0,2.21457 0,2.21457 0,0 -4.42914,0 -4.42914,0 0,0 0,2.21456 0,2.21456 0,0 -4.42913,0 -4.42913,0 0,0 0,2.21457 0,2.21457 0,0 -4.42914,0 -4.42914,0 0,0 0,-33.218501 0,-33.218501 0,0 4.42914,0 4.42914,0 0,0 0,-2.21456 0,-2.21456 0,0 4.42913,0 4.42913,0 0,0 0,-2.21458 0,-2.21458 0,0 4.42914,0 4.42914,0 0,0 0,-2.21456 0,-2.21456 0,0 4.42912,0 4.42912,0 z m -26.57479,0 c 0,0 0,2.21456 0,2.21456 0,0 -2.21456,0 -2.21456,0 0,0 0,-2.21456 0,-2.21456 0,0 2.21456,0 2.21456,0 z m 2.21456,2.21456 c 0,0 0,2.21458 0,2.21458 0,0 -2.21456,0 -2.21456,0 0,0 0,-2.21458 0,-2.21458 0,0 2.21456,0 2.21456,0 z m 2.21457,2.21458 c 0,0 0,4.42913 0,4.42913 0,0 -2.21457,0 -2.21457,0 0,0 0,-4.42913 0,-4.42913 0,0 2.21457,0 2.21457,0 z m 15.50197,0 c 0,0 0,2.21456 0,2.21456 0,0 -4.42914,0 -4.42914,0 0,0 0,2.21457 0,2.21457 0,0 -4.42913,0 -4.42913,0 0,0 0,6.643691 0,6.643691 0,0 4.42913,0 4.42913,0 0,0 0,-6.643691 0,-6.643691 0,0 4.42914,0 4.42914,0 0,0 0,-2.21457 0,-2.21457 0,0 2.21457,0 2.21457,0 0,0 0,4.429141 0,4.429141 0,0 2.21456,0 2.21456,0 0,0 0,-6.643701 0,-6.643701 0,0 -4.42913,0 -4.42913,0 z m -28.78937,2.21456 c 0,0 0,2.21457 0,2.21457 0,0 -4.42913,0 -4.42913,0 0,0 0,-2.21457 0,-2.21457 0,0 4.42913,0 4.42913,0 z m 15.50197,2.21457 c 0,0 0,31.003931 0,31.003931 0,0 -4.42914,0 -4.42914,0 0,0 0,-2.21457 0,-2.21457 0,0 -6.6437,0 -6.6437,0 0,0 0,-2.21456 0,-2.21456 0,0 -6.6437,0 -6.6437,0 0,0 0,-2.21457 0,-2.21457 0,0 -4.42912,0 -4.42912,0 0,0 0,-2.21457 0,-2.21457 0,0 -4.42915,0 -4.42915,0 0,0 0,-2.21457 0,-2.21457 0,0 2.21458,0 2.21458,0 0,0 0,-2.21456 0,-2.21456 0,0 2.21457,0 2.21457,0 0,0 0,-2.21457 0,-2.21457 0,0 2.21456,0 2.21456,0 0,0 0,2.21457 0,2.21457 0,0 11.07284,0 11.07284,0 0,0 0,-2.21457 0,-2.21457 0,0 2.21456,0 2.21456,0 0,0 0,-2.21456 0,-2.21456 0,0 2.21456,0 2.21456,0 0,0 0,-6.64371 0,-6.64371 0,0 2.21457,0 2.21457,0 0,0 0,-6.643691 0,-6.643691 0,0 2.21457,0 2.21457,0 z m -13.28741,0 c 0,0 0,2.214571 0,2.214571 0,0 -2.21456,0 -2.21456,0 0,0 0,-2.214571 0,-2.214571 0,0 2.21456,0 2.21456,0 z m -26.57479,0 c 0,0 0,2.214571 0,2.214571 0,0 -2.21457,0 -2.21457,0 0,0 0,-2.214571 0,-2.214571 0,0 2.21457,0 2.21457,0 z m 28.78936,2.214571 c 0,0 0,6.64369 0,6.64369 0,0 -2.21457,0 -2.21457,0 0,0 0,-6.64369 0,-6.64369 0,0 2.21457,0 2.21457,0 z m -26.57479,0 c 0,0 0,2.21456 0,2.21456 0,0 -2.21457,0 -2.21457,0 0,0 0,-2.21456 0,-2.21456 0,0 2.21457,0 2.21457,0 z m -6.6437,0 c 0,0 0,2.21456 0,2.21456 0,0 -2.21457,0 -2.21457,0 0,0 0,-2.21456 0,-2.21456 0,0 2.21457,0 2.21457,0 z m 22.14567,2.21456 c 0,0 0,2.21456 0,2.21456 0,0 -2.21457,0 -2.21457,0 0,0 0,-2.21456 0,-2.21456 0,0 2.21457,0 2.21457,0 z m -6.64371,0 c 0,0 0,2.21456 0,2.21456 0,0 -2.21456,0 -2.21456,0 0,0 0,-2.21456 0,-2.21456 0,0 2.21456,0 2.21456,0 z m -6.6437,0 c 0,0 0,2.21456 0,2.21456 0,0 -2.21456,0 -2.21456,0 0,0 0,-2.21456 0,-2.21456 0,0 2.21456,0 2.21456,0 z m -6.6437,0 c 0,0 0,2.21456 0,2.21456 0,0 -2.21456,0 -2.21456,0 0,0 0,-2.21456 0,-2.21456 0,0 2.21456,0 2.21456,0 z m 53.1496,0 c 0,0 0,2.21456 0,2.21456 0,0 2.21457,0 2.21457,0 0,0 0,-2.21456 0,-2.21456 0,0 -2.21457,0 -2.21457,0 z m -17.71653,2.21456 c 0,0 0,2.21457 0,2.21457 0,0 -2.21456,0 -2.21456,0 0,0 0,-2.21457 0,-2.21457 0,0 2.21456,0 2.21456,0 z m -19.93111,0 c 0,0 0,2.21457 0,2.21457 0,0 -2.21456,0 -2.21456,0 0,0 0,-2.21457 0,-2.21457 0,0 2.21456,0 2.21456,0 z m -6.64369,0 c 0,0 0,2.21457 0,2.21457 0,0 -2.21457,0 -2.21457,0 0,0 0,-2.21457 0,-2.21457 0,0 2.21457,0 2.21457,0 z m -6.6437,0 c 0,0 0,2.21457 0,2.21457 0,0 -2.21457,0 -2.21457,0 0,0 0,-2.21457 0,-2.21457 0,0 2.21457,0 2.21457,0 z m 26.57479,2.21457 c 0,0 0,2.21458 0,2.21458 0,0 -2.21456,0 -2.21456,0 0,0 0,-2.21458 0,-2.21458 0,0 2.21456,0 2.21456,0 z m -24.36022,0 c 0,0 0,2.21458 0,2.21458 0,0 -2.21457,0 -2.21457,0 0,0 0,-2.21458 0,-2.21458 0,0 2.21457,0 2.21457,0 z m 48.72046,0 c 0,0 0,2.21458 0,2.21458 0,0 2.21457,0 2.21457,0 0,0 0,-2.21458 0,-2.21458 0,0 -2.21457,0 -2.21457,0 z m -17.71653,2.21458 c 0,0 0,2.21456 0,2.21456 0,0 -2.21456,0 -2.21456,0 0,0 0,-2.21456 0,-2.21456 0,0 2.21456,0 2.21456,0 z m -8.85827,0 c 0,0 0,2.21456 0,2.21456 0,0 -2.21457,0 -2.21457,0 0,0 0,-2.21456 0,-2.21456 0,0 2.21457,0 2.21457,0 z m -13.2874,0 c 0,0 0,2.21456 0,2.21456 0,0 -2.21456,0 -2.21456,0 0,0 0,-2.21456 0,-2.21456 0,0 2.21456,0 2.21456,0 z m 19.93111,2.21456 c 0,0 0,2.21456 0,2.21456 0,0 -4.42915,0 -4.42915,0 0,0 0,-2.21456 0,-2.21456 0,0 4.42915,0 4.42915,0 z m -8.85828,0 c 0,0 0,2.21456 0,2.21456 0,0 -2.21456,0 -2.21456,0 0,0 0,-2.21456 0,-2.21456 0,0 2.21456,0 2.21456,0 z m -15.50196,0 c 0,0 0,2.21456 0,2.21456 0,0 -2.21457,0 -2.21457,0 0,0 0,-2.21456 0,-2.21456 0,0 2.21457,0 2.21457,0 z m 44.29133,0 c 0,0 0,2.21456 0,2.21456 0,0 2.21457,0 2.21457,0 0,0 0,-2.21456 0,-2.21456 0,0 -2.21457,0 -2.21457,0 z m 0,4.42913 c 0,0 0,2.21456 0,2.21456 0,0 2.21457,0 2.21457,0 0,0 0,-2.21456 0,-2.21456 0,0 -2.21457,0 -2.21457,0 z"
       id="Selection-6"
       inkscape:connector-curvature="0" />
  </g>
  <g
     inkscape:groupmode="layer"
     id="layer2"
     inkscape:label="cut"
     style="display:inline">
    <path
       transform="translate(23.206771,-573.83923)"
       inkscape:tile-y0="366.73242"
       inkscape:tile-x0="473.03125"
       id="use4295"
       d="m -2.98885,591.73293 c -1.28695,0 -2.32422,1.65736 -2.32422,3.7168 v 49.43359 h 4.93555 c 2.97618,-0.0588 5.41992,2.3377 5.41992,5.31446 0,2.97675 -2.44374,5.37325 -5.41992,5.31445 H -5.31307 V 765.1802 c 0,2.05945 1.03727,3.71679 2.32422,3.71679 h 44.625 v -3.54296 h 0.88672 v -17.96485 c -0.0588,-2.97618 2.338,-5.42187 5.31445,-5.42187 2.97644,0 5.3713,2.44569 5.3125,5.42187 v 21.50781 h 45.51367 c 1.28694,0 2.32227,-1.65734 2.32227,-3.71679 V 655.51223 h -4.9336 c -2.97617,0.0588 -5.42187,-2.3377 -5.42187,-5.31445 0,-2.97676 2.4457,-5.37326 5.42187,-5.31446 h 4.9336 v -49.43359 c 0,-2.05944 -1.03533,-3.7168 -2.32227,-3.7168 H 53.15177 v 4.11524 c 0.0588,2.97618 -2.3377,5.41992 -5.31445,5.41992 -2.97676,0 -5.37325,-2.44374 -5.31445,-5.41992 v -4.11524 z"
       style="fill:none;fill-opacity:0.06054945;stroke:#000000;stroke-width:0.35433072;stroke-linecap:butt;stroke-linejoin:miter;stroke-miterlimit:4;stroke-dasharray:none;stroke-opacity:1"
       inkscape:connector-curvature="0" />
    <path
       inkscape:tile-y0="366.73242"
       inkscape:tile-x0="473.03125"
       id="use4297"
       d="m 103.30998,591.73293 c -1.28695,0 -2.32422,1.65736 -2.32422,3.7168 v 49.43359 h 4.93555 c 2.97618,-0.0588 5.41992,2.3377 5.41992,5.31446 0,2.97675 -2.44374,5.37325 -5.41992,5.31445 h -4.93555 V 765.1802 c 0,2.05945 1.03727,3.71679 2.32422,3.71679 h 44.625 v -3.54296 h 0.88672 v -17.96485 c -0.0588,-2.97618 2.338,-5.42187 5.31445,-5.42187 2.97644,0 5.3713,2.44569 5.3125,5.42187 v 21.50781 h 45.51367 c 1.28694,0 2.32227,-1.65734 2.32227,-3.71679 V 655.51223 h -4.9336 c -2.97617,0.0588 -5.42187,-2.3377 -5.42187,-5.31445 0,-2.97676 2.4457,-5.37326 5.42187,-5.31446 h 4.9336 v -49.43359 c 0,-2.05944 -1.03533,-3.7168 -2.32227,-3.7168 H 159.4506 v 4.11524 c 0.0588,2.97618 -2.3377,5.41992 -5.31445,5.41992 -2.97676,0 -5.37325,-2.44374 -5.31445,-5.41992 v -4.11524 z"
       style="fill:none;fill-opacity:0.06054945;stroke:#000000;stroke-width:0.35433072;stroke-linecap:butt;stroke-linejoin:miter;stroke-miterlimit:4;stroke-dasharray:none;stroke-opacity:1"
       inkscape:connector-curvature="0"
       transform="translate(23.206771,-573.83923)" />
    <path
       transform="translate(23.206771,-573.83923)"
       inkscape:tile-y0="366.73242"
       inkscape:tile-x0="473.03125"
       id="use4299"
       d="m 209.60881,591.73293 c -1.28695,0 -2.32422,1.65736 -2.32422,3.7168 v 49.43359 h 4.93555 c 2.97618,-0.0588 5.41992,2.3377 5.41992,5.31446 0,2.97675 -2.44374,5.37325 -5.41992,5.31445 h -4.93555 V 765.1802 c 0,2.05945 1.03727,3.71679 2.32422,3.71679 h 44.625 v -3.54296 h 0.88672 v -17.96485 c -0.0588,-2.97618 2.338,-5.42187 5.31445,-5.42187 2.97644,0 5.3713,2.44569 5.3125,5.42187 v 21.50781 h 45.51367 c 1.28694,0 2.32227,-1.65734 2.32227,-3.71679 V 655.51223 h -4.9336 c -2.97617,0.0588 -5.42187,-2.3377 -5.42187,-5.31445 0,-2.97676 2.4457,-5.37326 5.42187,-5.31446 h 4.9336 v -49.43359 c 0,-2.05944 -1.03533,-3.7168 -2.32227,-3.7168 h -45.51172 v 4.11524 c 0.0588,2.97618 -2.3377,5.41992 -5.31445,5.41992 -2.97676,0 -5.37325,-2.44374 -5.31445,-5.41992 v -4.11524 z"
       style="fill:none;fill-opacity:0.06054945;stroke:#000000;stroke-width:0.35433072;stroke-linecap:butt;stroke-linejoin:miter;stroke-miterlimit:4;stroke-dasharray:none;stroke-opacity:1"
       inkscape:connector-curvature="0" />
  </g>
</svg>
