<?xml version="1.0" encoding="UTF-8" standalone="no"?>
<svg
   xmlns:dc="http://purl.org/dc/elements/1.1/"
   xmlns:cc="http://creativecommons.org/ns#"
   xmlns:rdf="http://www.w3.org/1999/02/22-rdf-syntax-ns#"
   xmlns:svg="http://www.w3.org/2000/svg"
   xmlns="http://www.w3.org/2000/svg"
   version="1.1"
   width="182.29999mm"
   height="112.3mm"
   viewBox="0 0 645.94539 397.9137"
   id="svg26">
  <metadata
     id="metadata32">
    <rdf:RDF>
      <cc:Work
         rdf:about="">
        <dc:format>image/svg+xml</dc:format>
        <dc:type
           rdf:resource="http://purl.org/dc/dcmitype/StillImage" />
        <dc:title></dc:title>
      </cc:Work>
    </rdf:RDF>
  </metadata>
  <defs
     id="defs30" />
  <!-- Front-->
  <!-- Back-->
  <!-- Left-->
  <!-- Right-->
  <!-- Top-->
  <!-- Bottom-->
  <g
     transform="rotate(-90,198.95686,217.38207)"
     id="g4469">
    <path
       style="fill:none;stroke:#000000;stroke-width:1.06299305;stroke-linecap:round;stroke-linejoin:round;stroke-miterlimit:4;stroke-dasharray:none"
       d="m 327.22468,33.129948 h 21.25986 v -10.62993 h 21.25986 v 10.62993 h 21.25986 v -10.62993 h 10.62993 v 31.88979 h 10.62993 v 31.88979 h -10.62993 v 21.259862 h 10.62993 v 21.25986 h -10.62993 v 21.25986 h 10.62993 v 21.25986 h -10.62993 v 21.25986 h 10.62993 v 21.25986 h -10.62993 v 21.25986 h 10.62993 v 21.25986 h -10.62993 v 21.25986 h 10.62993 v 31.88979 h -10.62993 v 31.88979 H 391.00426 V 330.76799 H 369.7444 v 10.62993 h -21.25986 v -10.62993 h -21.25986 v 10.62993 h -10.62993 v -31.88979 h -10.62993 v -31.88979 h 10.62993 v -21.25986 h -10.62993 v -21.25986 h 10.62993 V 213.83876 H 305.96482 V 192.5789 h 10.62993 v -21.25986 h -10.62993 v -21.25986 h 10.62993 v -21.25986 h -10.62993 v -21.25986 h 10.62993 V 86.279598 h -10.62993 v -31.88979 h 10.62993 v -31.88979 h 10.62993 z"
       id="polygon10" />
    <path
       style="fill:none;stroke:#000000;stroke-width:1.06299305;stroke-linecap:round;stroke-linejoin:round;stroke-miterlimit:4;stroke-dasharray:none"
       d="m 327.22468,352.02785 h 21.25986 v -10.62993 h 21.25986 v 10.62993 h 21.25986 v -10.62993 h 10.62993 v 31.88979 h 10.62993 v 31.88979 h -10.62993 v 21.25986 h 10.62993 v 21.25986 h -10.62993 v 21.25986 h 10.62993 v 21.25986 h -10.62993 v 21.25986 h 10.62993 v 21.25986 h -10.62993 v 21.25986 h 10.62993 v 21.25986 h -10.62993 v 21.25986 h 10.62993 v 31.88979 h -10.62993 v 31.88979 H 391.00426 V 649.66589 H 369.7444 v 10.62993 h -21.25986 v -10.62993 h -21.25986 v 10.62993 h -10.62993 v -31.88979 h -10.62993 v -31.88979 h 10.62993 v -21.25986 h -10.62993 v -21.25986 h 10.62993 V 532.73666 H 305.96482 V 511.4768 h 10.62993 v -21.25986 h -10.62993 v -21.25986 h 10.62993 v -21.25986 h -10.62993 v -21.25986 h 10.62993 V 405.1775 h -10.62993 v -31.88979 h 10.62993 v -31.88979 h 10.62993 z"
       id="polygon14" />
    <path
       style="fill:none;stroke:#000000;stroke-width:1.06299305;stroke-linecap:round;stroke-linejoin:round;stroke-miterlimit:4;stroke-dasharray:none"
       d="m 52.618153,341.39792 h 30.118135 v 10.62993 h 21.259862 v -10.62993 h 30.11814 v 10.62993 h 19.4882 v 10.62993 h 10.62993 v 21.25986 h -10.62993 v 21.25986 h 10.62993 v 21.25986 h -10.62993 v 10.62993 h -19.4882 v 10.62993 H 103.99615 V 437.06729 H 82.736288 v 10.62993 H 52.618153 V 437.06729 H 33.129948 V 426.43736 H 22.500018 V 405.1775 h 10.62993 v -21.25986 h -10.62993 v -21.25986 h 10.62993 v -10.62993 h 19.488205 z"
       id="polygon18" />
    <path
       style="fill:none;stroke:#000000;stroke-width:1.06299305;stroke-linecap:round;stroke-linejoin:round;stroke-miterlimit:4;stroke-dasharray:none"
       d="m 194.35055,341.39792 h 30.11814 v 10.62993 h 21.25986 v -10.62993 h 30.11814 v 10.62993 h 19.4882 v 10.62993 h 10.62993 v 21.25986 h -10.62993 v 21.25986 h 10.62993 v 21.25986 h -10.62993 v 10.62993 h -19.4882 v 10.62993 h -30.11814 v -10.62993 h -21.25986 v 10.62993 h -30.11814 v -10.62993 h -19.4882 V 426.43736 H 164.23242 V 405.1775 h 10.62993 v -21.25986 h -10.62993 v -21.25986 h 10.62993 v -10.62993 h 19.4882 z"
       id="polygon22" />
    <g
       id="g1235">
      <path
         style="fill:none;stroke:#000000;stroke-width:1.06299305;stroke-linecap:round;stroke-linejoin:round;stroke-miterlimit:4;stroke-dasharray:none"
         d="m 22.500018,22.500018 h 30.118135 v 10.62993 h 30.118135 v -10.62993 h 21.259862 v 10.62993 h 30.11814 v -10.62993 h 30.11813 v 31.88979 h -10.62993 v 31.88979 h 10.62993 v 21.259862 h -10.62993 v 21.25986 h 10.62993 v 21.25986 h -10.62993 v 21.25986 h 10.62993 v 21.25986 h -10.62993 v 21.25986 h 10.62993 v 21.25986 h -10.62993 v 21.25986 h 10.62993 v 21.25986 h -10.62993 v 31.88979 h 10.62993 v 31.88979 h -30.11813 v -10.62993 h -30.11814 v 10.62993 H 82.736288 V 330.76799 H 52.618153 v 10.62993 H 22.500018 v -31.88979 h 10.62993 v -31.88979 h -10.62993 v -21.25986 h 10.62993 v -21.25986 h -10.62993 v -21.25986 h 10.62993 V 192.5789 h -10.62993 v -21.25986 h 10.62993 v -21.25986 h -10.62993 v -21.25986 h 10.62993 V 107.53946 H 22.500018 V 86.279598 h 10.62993 v -31.88979 h -10.62993 z"
         id="polygon2" />
      <path
         id="rect7175"
         d="m 72.106356,80.407913 h 42.519684 c 9.81496,0 17.71653,7.901575 17.71653,17.716536 v 42.519681 c 0,9.81496 -7.90157,17.71653 -17.71653,17.71653 H 72.106356 c -9.814961,0 -17.716536,-7.90157 -17.716536,-17.71653 V 98.124449 c 0,-9.814961 7.901575,-17.716536 17.716536,-17.716536 z"
         style="opacity:1;vector-effect:none;fill:none;fill-opacity:1;stroke:#000000;stroke-width:1.06299305;stroke-linecap:round;stroke-linejoin:round;stroke-miterlimit:4;stroke-dasharray:none;stroke-dashoffset:0;stroke-opacity:1" />
    </g>
    <g
       id="g1241">
      <path
         transform="scale(0.9375008)"
         id="path1204"
         d="m 186.51968,273.44881 v 0 -22.67716 H 175.1811 v -22.67717 h 11.33858 V 205.41732 H 175.1811 v -22.67717 h 11.33858 V 160.06299 H 175.1811 v -22.67717 h 11.33858 V 114.70866 H 175.1811 V 92.031493 h 11.33858 V 58.015746 H 175.1811 V 23.999999 h 32.12598 v 11.338582 0 h 32.12599 V 23.999999 h 22.67716 v 11.338582 h 32.12599 V 23.999999 h 32.12598 v 34.015747 h -11.33859 v 34.015747 h 11.33859 v 22.677167 h -11.33859 v 22.67716 h 11.33859 v 22.67717 h -11.33859 v 22.67716 h 11.33859 v 22.67717 h -11.33859 v 22.67716 h 11.33859 v 22.67717 h -11.33859 v 22.67716 0 z"
         style="fill:none;stroke:#000000;stroke-width:1.13385832;stroke-linecap:round;stroke-linejoin:round;stroke-miterlimit:4;stroke-dasharray:none" />
      <path
         id="circle1109"
         d="m 192.65846,99.897034 a 5.669291,5.669291 0 0 1 -5.66929,5.669286 5.669291,5.669291 0 0 1 -5.66929,-5.669286 5.669291,5.669291 0 0 1 5.66929,-5.669291 5.669291,5.669291 0 0 1 5.66929,5.669291 z"
         style="opacity:1;vector-effect:none;fill:none;fill-opacity:1;stroke:#000000;stroke-width:1.06299305;stroke-linecap:round;stroke-linejoin:round;stroke-miterlimit:4;stroke-dasharray:none;stroke-dashoffset:0;stroke-opacity:1" />
      <path
         id="circle1111"
         d="m 288.87736,99.897034 a 5.669291,5.669291 0 0 1 -5.66929,5.669286 5.669291,5.669291 0 0 1 -5.66929,-5.669286 5.669291,5.669291 0 0 1 5.66929,-5.669291 5.669291,5.669291 0 0 1 5.66929,5.669291 z"
         style="opacity:1;vector-effect:none;fill:none;fill-opacity:1;stroke:#000000;stroke-width:1.06299305;stroke-linecap:round;stroke-linejoin:round;stroke-miterlimit:4;stroke-dasharray:none;stroke-dashoffset:0;stroke-opacity:1" />
      <path
         id="circle1113"
         d="m 240.76887,45.651875 a 5.669291,5.669291 0 0 1 -5.66929,5.669291 5.669291,5.669291 0 0 1 -5.66929,-5.669291 5.669291,5.669291 0 0 1 5.66929,-5.669291 5.669291,5.669291 0 0 1 5.66929,5.669291 z"
         style="opacity:1;vector-effect:none;fill:none;fill-opacity:1;stroke:#000000;stroke-width:1.06299305;stroke-linecap:round;stroke-linejoin:round;stroke-miterlimit:4;stroke-dasharray:none;stroke-dashoffset:0;stroke-opacity:1" />
    </g>
  </g>
</svg>
